<svg xmlns="http://www.w3.org/2000/svg" viewBox="0 0 256 256" width="256" height="256">
  <rect width="256" height="256" rx="56" fill="#F05133"/>
  <g transform="translate(40 40) scale(0.7)">
    <path fill="#FFFFFF" d="M251.7 116.7 139.3 4.3a14.8 14.8 0 0 0-20.9 0L95.1 27.7l29.6 29.6a17.6 17.6 0 0 1 22.3 22.4l28.5 28.5a17.6 17.6 0 1 1-10.6 9.9l-26.6-26.6v70a17.6 17.6 0 1 1-14.5-.5V90.2a17.6 17.6 0 0 1-9.6-23.1L114.5 37.9 4.3 148a14.8 14.8 0 0 0 0 20.9l112.4 112.4a14.8 14.8 0 0 0 20.9 0l111.9-111.9a14.8 14.8 0 0 0 0-20.9z"/>
  </g>
</svg>
